<?xml version="1.0" standalone="no"?><!DOCTYPE svg PUBLIC "-//W3C//DTD SVG 1.1//EN" "http://www.w3.org/Graphics/SVG/1.1/DTD/svg11.dtd"><svg t="1557038123443" class="icon" style="" viewBox="0 0 1024 1024" version="1.1" xmlns="http://www.w3.org/2000/svg" p-id="4852" xmlns:xlink="http://www.w3.org/1999/xlink" width="200" height="200"><defs><style type="text/css"></style></defs><path d="M869.595429 69.12L1024 358.765714c0 16.237714-10.166857 35.84-10.166857 35.84S523.702857 962.340571 518.363429 967.68a17.554286 17.554286 0 0 1-25.014858-0.292571C485.083429 958.976 17.627429 394.752 17.627429 394.752S0 376.027429 0 358.838857L159.524571 69.12C164.644571 59.392 167.716571 51.2 177.152 51.2h676.790857c6.363429-0.073143 12.068571 11.556571 15.652572 17.92zM768 384.512V307.2H649.801143L492.324571 499.273143V307.2H256v77.312h118.198857s-4.461714 291.986286 66.194286 280.795429l248.832-280.795429H768z" p-id="4853" fill="#ffffff"></path></svg>