<?xml version="1.0" encoding="utf-8"?>
<!-- Generator: Adobe Illustrator 16.0.0, SVG Export Plug-In . SVG Version: 6.00 Build 0)  -->
<!DOCTYPE svg PUBLIC "-//W3C//DTD SVG 1.1//EN" "http://www.w3.org/Graphics/SVG/1.1/DTD/svg11.dtd">
<svg version="1.1" id="图层_1" xmlns="http://www.w3.org/2000/svg" xmlns:xlink="http://www.w3.org/1999/xlink" x="0px" y="0px"
	 width="15.625px" height="14.5px" viewBox="0 0 15.625 14.5" enable-background="new 0 0 15.625 14.5" xml:space="preserve">
<g>
	<path fill="#FFFFFF" d="M4.077,0.992c0,0.235,0.097,0.471,0.264,0.637c0.167,0.167,0.401,0.265,0.636,0.265
		c0.236,0,0.47-0.097,0.637-0.265c0.167-0.166,0.264-0.401,0.264-0.637c0-0.237-0.097-0.47-0.264-0.637
		C5.447,0.188,5.213,0.09,4.978,0.09c-0.235,0-0.469,0.097-0.636,0.264C4.174,0.522,4.077,0.757,4.077,0.992L4.077,0.992z"/>
	<path fill="#FFFFFF" d="M6.761,0.992c0,0.189,0.078,0.378,0.212,0.512c0.135,0.135,0.323,0.213,0.513,0.213
		c0.189,0,0.376-0.078,0.512-0.213C8.132,1.37,8.211,1.181,8.211,0.992c0-0.19-0.079-0.378-0.213-0.513
		C7.862,0.345,7.675,0.267,7.486,0.267c-0.19,0-0.378,0.078-0.513,0.212C6.839,0.614,6.761,0.803,6.761,0.992L6.761,0.992z"/>
	<path fill="#FFFFFF" d="M8.968,0.992c0,0.138,0.057,0.275,0.154,0.372C9.22,1.461,9.357,1.519,9.495,1.519
		c0.138,0,0.274-0.057,0.372-0.155c0.097-0.097,0.154-0.234,0.154-0.372c0-0.138-0.055-0.274-0.154-0.372
		C9.769,0.522,9.631,0.465,9.495,0.465c-0.138,0-0.274,0.057-0.373,0.154C9.025,0.718,8.968,0.854,8.968,0.992L8.968,0.992z"/>
	<path fill="#FFFFFF" d="M8.645,4.736c-1.23,0-2.228,0.997-2.228,2.228c0,1.23,0.998,2.228,2.228,2.228s2.228-0.998,2.228-2.228
		C10.872,5.733,9.875,4.736,8.645,4.736z M9.719,6.177H8.352v0.458h1.367v0.459H8.352v0.458h1.367v0.458h-2.05V5.719h2.05V6.177z"/>
	<path fill="#FFFFFF" d="M7.955,2.862c-1.303,0-2.512,0.378-3.51,1.004c-0.127-0.204-0.288-0.41-0.47-0.53
		C3.653,3.124,2.971,2.921,2.544,2.63c0.299-0.277,0.487-0.673,0.487-1.114C3.032,0.679,2.353,0,1.515,0C0.678,0,0,0.679,0,1.516
		c0,0.838,0.679,1.516,1.515,1.516c0.216,0,0.421-0.044,0.607-0.126C2.265,3.023,2.56,3.237,2.954,3.367
		c0.542,0.177,0.819,0.42,0.889,0.927C2.56,5.324,1.752,6.799,1.752,8.349c0,3.427,2.777,6.203,6.204,6.203
		c3.426,0,6.202-2.776,6.202-6.203C14.157,5.43,11.38,2.862,7.955,2.862z M3.594,9c0,0,0.875,3.969,5.469,4.188
		C9.063,13.188,3.469,14.469,3.594,9z M8.855,12.027c-2.178,0-3.944-1.766-3.944-3.944c0-2.179,1.766-3.945,3.944-3.945
		c2.179,0,3.945,1.766,3.945,3.945C12.8,10.261,11.035,12.027,8.855,12.027z"/>
</g>
</svg>
