<?xml version="1.0" standalone="no"?><!DOCTYPE svg PUBLIC "-//W3C//DTD SVG 1.1//EN" "http://www.w3.org/Graphics/SVG/1.1/DTD/svg11.dtd"><svg t="1552467897766" class="icon" style="" viewBox="0 0 1024 1024" version="1.1" xmlns="http://www.w3.org/2000/svg" p-id="875" xmlns:xlink="http://www.w3.org/1999/xlink" width="200" height="200"><defs><style type="text/css"></style></defs><path d="M37.486 174.572l420.217 420.214c15.204 14.389 35.722 23.231 58.314 23.231 21.458 0 41.039-7.981 55.991-21.115 2.761-2.425 422.332-422.331 422.332-422.331h-956.853z" p-id="876" fill="#1296db"></path><path d="M325.518 493.255l-304.395 304.391v-608.793z" p-id="877" fill="#1296db"></path><path d="M516.028 641.914c-26 0-50.735-9.849-69.645-27.738l-0.323-0.318-107.145-107.14-307.35 307.348h968.697l-307.265-307.262c-63.747 63.739-108.969 108.9-110.1 109.897-18.506 16.259-42.255 25.212-66.868 25.212z" p-id="878" fill="#1296db"></path><path d="M1011.233 797.647v-608.793l-304.397 304.401z" p-id="879" fill="#1296db"></path></svg>