<?xml version="1.0" encoding="utf-8"?>
<!-- Generator: Adobe Illustrator 16.0.0, SVG Export Plug-In . SVG Version: 6.00 Build 0)  -->
<!DOCTYPE svg PUBLIC "-//W3C//DTD SVG 1.1//EN" "http://www.w3.org/Graphics/SVG/1.1/DTD/svg11.dtd">
<svg version="1.1" id="图层_1" xmlns="http://www.w3.org/2000/svg" xmlns:xlink="http://www.w3.org/1999/xlink" x="0px" y="0px"
	 width="15.625px" height="14.5px" viewBox="0 0 15.625 14.5" enable-background="new 0 0 15.625 14.5" xml:space="preserve">
<ellipse fill="#FFFFFF" cx="8.109" cy="8.813" rx="5.234" ry="5.688"/>
<g>
	<path fill="#23A5DE" d="M4.077,0.992c0,0.235,0.097,0.471,0.264,0.637c0.167,0.167,0.401,0.265,0.636,0.265
		c0.236,0,0.47-0.097,0.637-0.265c0.167-0.166,0.264-0.401,0.264-0.637c0-0.237-0.097-0.47-0.264-0.637S5.213,0.09,4.978,0.09
		S4.509,0.187,4.342,0.354C4.174,0.522,4.077,0.757,4.077,0.992L4.077,0.992z"/>
	<path fill="#23A5DE" d="M6.761,0.992c0,0.189,0.078,0.378,0.212,0.512c0.135,0.135,0.323,0.213,0.513,0.213
		c0.189,0,0.376-0.078,0.512-0.213C8.132,1.37,8.211,1.181,8.211,0.992c0-0.19-0.079-0.378-0.213-0.513
		C7.862,0.345,7.675,0.267,7.486,0.267c-0.19,0-0.378,0.078-0.513,0.212C6.839,0.614,6.761,0.803,6.761,0.992L6.761,0.992z"/>
	<path fill="#23A5DE" d="M8.968,0.992c0,0.138,0.058,0.275,0.154,0.372c0.099,0.097,0.235,0.155,0.373,0.155S9.77,1.462,9.867,1.364
		c0.097-0.097,0.154-0.234,0.154-0.372c0-0.138-0.056-0.274-0.154-0.372C9.77,0.522,9.631,0.465,9.495,0.465
		c-0.138,0-0.274,0.057-0.373,0.154C9.025,0.718,8.968,0.854,8.968,0.992L8.968,0.992z"/>
	<path fill="#23A5DE" d="M7.955,2.862c-1.303,0-2.512,0.378-3.51,1.004c-0.127-0.204-0.288-0.41-0.47-0.53
		C3.653,3.124,2.971,2.921,2.544,2.63c0.299-0.277,0.487-0.673,0.487-1.114C3.032,0.679,2.353,0,1.515,0C0.678,0,0,0.679,0,1.516
		c0,0.838,0.679,1.516,1.515,1.516c0.216,0,0.421-0.044,0.607-0.126C2.265,3.023,2.56,3.237,2.954,3.367
		c0.542,0.177,0.819,0.42,0.889,0.927C2.56,5.324,1.752,6.799,1.752,8.35c0,3.426,2.777,6.202,6.204,6.202
		c3.426,0,6.202-2.776,6.202-6.202C14.157,5.43,11.38,2.862,7.955,2.862z M3.594,9c0,0,0.875,3.969,5.468,4.188
		C9.063,13.188,3.469,14.469,3.594,9z M8.855,12.027c-2.179,0-3.944-1.767-3.944-3.944c0-2.179,1.766-3.945,3.944-3.945
		S12.8,5.904,12.8,8.083C12.8,10.261,11.035,12.027,8.855,12.027z"/>
</g>
<g>
	<path fill="#23A5DE" d="M10.006,6.527H8.415c-0.069,0-0.104,0.03-0.104,0.091c0,0.146,0.079,0.285,0.238,0.415
		s0.33,0.194,0.513,0.194c0.108,0,0.229-0.021,0.36-0.063c0.133-0.042,0.241-0.093,0.327-0.154c0.076-0.054,0.138-0.082,0.183-0.082
		c0.059,0,0.116,0.036,0.173,0.108c0.056,0.072,0.084,0.147,0.084,0.224c0,0.162-0.102,0.319-0.305,0.47
		C9.525,8,9.111,8.135,8.642,8.135c-0.474,0-0.87-0.138-1.191-0.414C7.295,7.586,7.166,7.422,7.064,7.23
		C6.932,6.976,6.865,6.707,6.865,6.425c0-0.379,0.115-0.72,0.345-1.022c0.199-0.262,0.451-0.457,0.759-0.585
		C8.198,4.72,8.448,4.672,8.717,4.672c0.429,0,0.793,0.122,1.093,0.366c0.151,0.122,0.273,0.266,0.366,0.433
		c0.105,0.189,0.158,0.375,0.158,0.555c0,0.146-0.03,0.267-0.091,0.36C10.182,6.48,10.104,6.527,10.006,6.527z M8.503,5.894h0.342
		c0.145,0,0.217-0.066,0.217-0.2c0-0.122-0.035-0.221-0.104-0.298c-0.07-0.077-0.161-0.115-0.274-0.115
		c-0.126,0-0.226,0.049-0.298,0.149C8.317,5.522,8.283,5.616,8.283,5.711c0,0.068,0.017,0.115,0.049,0.142
		C8.365,5.88,8.422,5.894,8.503,5.894z"/>
</g>
</svg>
