<?xml version="1.0" standalone="no"?><!DOCTYPE svg PUBLIC "-//W3C//DTD SVG 1.1//EN" "http://www.w3.org/Graphics/SVG/1.1/DTD/svg11.dtd"><svg t="1554272483315" class="icon" style="" viewBox="0 0 1024 1024" version="1.1" xmlns="http://www.w3.org/2000/svg" p-id="2687" xmlns:xlink="http://www.w3.org/1999/xlink" width="200" height="200"><defs><style type="text/css"></style></defs><path d="M275 82.9c-111 0-200.9 90-200.9 200.9 0 111 90 200.9 200.9 200.9h201V283.8c0-111-90-200.9-201-200.9z m664.7 200.9c0-111-90-200.9-200.9-200.9s-201 90-201 200.9v200.9h201c110.9 0 200.9-89.9 200.9-200.9zM74.1 747.5c0 111 90 200.9 200.9 200.9 111 0 200.9-89.9 200.9-200.9V546.6H275c-110.9 0-200.9 89.9-200.9 200.9z m664.6-200.9h-201v200.9c0 111 90 200.9 201 200.9s200.9-90 200.9-200.9c0.1-111-89.9-200.9-200.9-200.9z" fill="#0096de" p-id="2688"></path></svg>