<?xml version="1.0" encoding="utf-8"?>
<!-- Generator: Adobe Illustrator 16.0.0, SVG Export Plug-In . SVG Version: 6.00 Build 0)  -->
<!DOCTYPE svg PUBLIC "-//W3C//DTD SVG 1.1//EN" "http://www.w3.org/Graphics/SVG/1.1/DTD/svg11.dtd">
<svg version="1.1" id="图层_1" xmlns="http://www.w3.org/2000/svg" xmlns:xlink="http://www.w3.org/1999/xlink" x="0px" y="0px"
	 width="23.188px" height="14.438px" viewBox="0 0 23.188 14.438" enable-background="new 0 0 23.188 14.438" xml:space="preserve">
<path fill-rule="evenodd" clip-rule="evenodd" fill="#FFFFFF" d="M-0.004,4.194c6.052-0.709,11.924,1.947,17.791,4.217l3.243,1.155
	c0.561,0.255,1.385,0.462,2.136,0.663c0.13,1.74-0.321,2.875-0.986,3.522c-6.698,0-13.397,0-20.095,0
	c0.014-1.011,0.377-1.673,1.398-2.199C2.087,10.268,0.694,7.467-0.004,4.194L-0.004,4.194z M4.091,1.753V0.359V0.006H3.737H1.521
	v0.354h2.216v1.394H4.091L4.091,1.753z M4.091,3.835V2.442V2.088H3.737H1.521v0.354h2.216v1.393H4.091L4.091,3.835z M13.258,0.311
	h-2.57v0.354h2.57v1.393l2.636,1.047V1.356L13.258,0.311L13.258,0.311z M7.112,0H4.542v0.354h2.569v1.393l2.636,1.047V1.046L7.112,0
	L7.112,0z M7.112,2.088H4.542v0.354h2.569v1.393l2.636,1.047V3.134L7.112,2.088L7.112,2.088z M10.222,1.185v1.748l2.636,1.046V2.231
	L10.222,1.185L10.222,1.185z M10.222,3.272v1.748l2.636,1.046V4.319L10.222,3.272L10.222,3.272z M13.302,2.458v1.748l2.636,1.046
	V3.505L13.302,2.458L13.302,2.458z M13.302,4.546v1.748l2.636,1.046V5.593L13.302,4.546L13.302,4.546z M19.613,8.513l1.962,0.699
	l-0.006-0.227l0.75,0.028V8.473l-0.496-0.334V7.588l-2.21-1.489h-0.834V5.702H18.04V5.186h-0.693v0.913h-0.88v0.44h3.146V8.513
	L19.613,8.513z M19.365,7.376h-0.592v0.316h0.592V7.376L19.365,7.376z M17.557,6.775h-0.592v0.315h0.592V6.775L17.557,6.775z
	 M18.479,6.775h-0.592v0.315h0.592V6.775L18.479,6.775z M19.365,6.775h-0.592v0.315h0.592V6.775L19.365,6.775z M5.332,6.585
	c-0.515,0-0.932,0.418-0.932,0.932c0,0.516,0.417,0.932,0.932,0.932s0.932-0.416,0.932-0.932C6.263,7.003,5.846,6.585,5.332,6.585z"
	/>
</svg>
