<?xml version="1.0" encoding="utf-8"?>
<!-- Generator: Adobe Illustrator 16.0.0, SVG Export Plug-In . SVG Version: 6.00 Build 0)  -->
<!DOCTYPE svg PUBLIC "-//W3C//DTD SVG 1.1//EN" "http://www.w3.org/Graphics/SVG/1.1/DTD/svg11.dtd">
<svg version="1.1" id="图层_1" xmlns="http://www.w3.org/2000/svg" xmlns:xlink="http://www.w3.org/1999/xlink" x="0px" y="0px"
	 width="116.594px" height="12.125px" viewBox="0 0 116.594 12.125" enable-background="new 0 0 116.594 12.125"
	 xml:space="preserve">
<g>
	<g enable-background="new    ">
		<path fill="#A6A6A6" d="M2.233,4.971H0V3.462h2.802l0.472-1.247H0.513V0.706h3.316L4.106,0h2.012l-0.25,0.706h5.813v1.509H5.299
			L4.828,3.462h7.325v1.509H4.259l-0.5,1.328h5.743h2.025L11.39,6.678l-1.72,4.576H7.644h-3.69l0.236,0.623H2.164L1.068,9.039h2.039
			l0.264,0.705h4.842l0.721-1.936H3.191H1.457H1.166L2.233,4.971z"/>
		<path fill="#A6A6A6" d="M15.621,0.017h11.875v1.419c0,0.5-0.102,0.897-0.305,1.191c-0.213,0.283-0.56,0.424-1.041,0.424h-8.643
			v7.12l-0.417,1.689h-1.817l0.347-1.605V0.017z M17.508,1.788h8.06c0.083,0,0.143-0.021,0.18-0.065
			c0.028-0.055,0.042-0.115,0.042-0.181V1.28h-8.282V1.788z M17.91,3.626l9.586-0.295v1.148l-3.94,0.131v0.476h3.94v1.386
			c0,0.37-0.106,0.678-0.319,0.928c-0.213,0.262-0.481,0.393-0.805,0.393h-2.816v0.41h3.011c0.259,0,0.479,0.109,0.659,0.328
			c0.181,0.219,0.271,0.48,0.271,0.787v1.279c0,0.352-0.102,0.65-0.305,0.902c-0.231,0.24-0.495,0.361-0.791,0.361h-1.845
			l0.277-0.918h-0.68l-3.981,0.031V9.893l1.484-0.033V9.352h-1.845v2.51h-1.9V8.203h3.746v-0.41H17.91V5.086h3.746V4.659
			L17.91,4.774V3.626z M21.656,6.645v-0.41h-1.942v0.41H21.656z M23.556,6.234v0.41h1.942c0.037,0,0.083-0.021,0.139-0.066
			c0.046-0.054,0.069-0.115,0.069-0.179V6.234H23.556z M23.556,9.352v0.492h0.25l-0.083-0.246h1.415l0.277,1.131
			c0.12-0.01,0.181-0.098,0.181-0.262V9.58c0-0.152-0.065-0.229-0.194-0.229H23.556z"/>
		<path fill="#A6A6A6" d="M34.017,0l-0.967,2.756h0.509v9.089h-1.776V4.446h-1.179L32.157,0H34.017z M37.318,0.017l-0.222,0.574
			h5.702l-0.555,2.477h-1.928l0.236-0.853h-1.027v7.842c0,0.252-0.04,0.486-0.118,0.705c-0.079,0.219-0.188,0.41-0.326,0.574
			s-0.301,0.293-0.486,0.387c-0.185,0.092-0.384,0.139-0.596,0.139h-1.415l0.541-1.625h0.277c0.12,0,0.222-0.049,0.305-0.146
			c0.083-0.1,0.125-0.219,0.125-0.361V2.215h-3.385l0.819-2.198H37.318z M34.446,10.336l0.458-6.415h1.54l-0.458,6.415H34.446z
			 M40.759,3.921h1.54l0.458,6.415h-1.54L40.759,3.921z"/>
		<path fill="#A6A6A6" d="M48.902,0l-0.624,1.313h2.539v8.729c0,0.252-0.04,0.486-0.118,0.705c-0.079,0.219-0.188,0.41-0.327,0.574
			s-0.301,0.293-0.486,0.385c-0.186,0.094-0.38,0.141-0.584,0.141h-3.936V1.313h0.833L46.835,0H48.902z M48.889,2.937h-1.596v3.249
			h1.596V2.937z M48.445,10.221c0.129,0,0.236-0.049,0.319-0.148c0.083-0.098,0.125-0.219,0.125-0.359V7.809h-1.596v2.412H48.445z
			 M53.619,1.05h3.954v0.099v1.526v7.398c0,0.252-0.042,0.488-0.125,0.707s-0.194,0.41-0.333,0.574s-0.301,0.293-0.485,0.385
			c-0.185,0.094-0.379,0.139-0.583,0.139h-3.731l0.541-1.443h2.358c0.12,0,0.222-0.049,0.305-0.146
			c0.083-0.1,0.125-0.219,0.125-0.361V2.674h-2.483H52.69h-1.54L51.913,0h2.011L53.619,1.05z M53.217,7.547l-1.29-3.134h2.025
			l1.291,3.132L53.217,7.547z"/>
		<path fill="#A6A6A6" d="M62.012,11.436h-1.859v-0.018V9.893v-7.94V1.378V0.427h12.139v0.935v0.59v7.892
			c0,0.438-0.13,0.809-0.389,1.115s-0.573,0.459-0.943,0.459h-8.948V11.436z M62.012,9.893h8.046c0.083,0,0.154-0.035,0.215-0.107
			c0.061-0.07,0.09-0.154,0.09-0.254V1.952h-8.351V9.893z"/>
		<path fill="#A6A6A6" d="M76.824,11.846h-1.938l0.639-1.658V3.593H87.08v1.625h-9.628v4.97L76.824,11.846z M87.039,1.329
			c0,0.251-0.042,0.487-0.125,0.705c-0.083,0.219-0.194,0.41-0.333,0.574s-0.301,0.293-0.485,0.386
			c-0.186,0.093-0.38,0.14-0.583,0.14H75.455V0.017h1.942v1.493h3.218V0.017h1.929v1.493h2.123c0.129,0,0.235-0.049,0.318-0.147
			c0.084-0.099,0.125-0.219,0.125-0.361V0.017h1.929V1.329z M81.24,11.846v-1.379h-3.538V8.842h3.538V7.398h-3.357V5.775h8.795
			v1.624h-3.51v1.443h3.912v1.625h-3.912v1.379H81.24z"/>
		<path fill="#A6A6A6" d="M89.688,6.12l1.637-1.673h-1.664V2.822h2.386v-0.59h-0.472h-1.026h-0.888l0.651-2.199h1.915l-0.167,0.574
			h3.635v1.625h-1.72v0.59h1.803v1.625h-1.026l1.207,1.673H94.03l-0.888-1.247L91.922,6.12H89.688z M89.827,11.846v-1.428V9.762
			V8.646V7.99V6.709V6.545h9.836h2.012v1.457v0.654v1.047v0.064c-0.01,0.295-0.054,0.568-0.132,0.818
			c-0.079,0.25-0.188,0.469-0.326,0.654s-0.301,0.332-0.485,0.441c-0.186,0.109-0.38,0.164-0.583,0.164h-8.352H89.827z
			 M91.797,8.646h7.866V7.99h-7.866V8.646z M91.797,10.4h7.422c0.13,0,0.236-0.057,0.319-0.176c0.083-0.117,0.125-0.26,0.125-0.432
			V9.762h-7.866V10.4z M96.334,0.033h5.507v0.148v1.477v2.658c0,0.251-0.039,0.487-0.117,0.706c-0.079,0.219-0.188,0.41-0.326,0.574
			s-0.301,0.292-0.485,0.385c-0.186,0.093-0.385,0.14-0.597,0.14h-3.981v-0.64V4.495V1.657V0.181V0.033z M99.913,1.657h-1.651v2.838
			h1.221c0.12,0,0.223-0.049,0.306-0.147s0.125-0.219,0.125-0.361V1.657z"/>
		<path fill="#A6A6A6" d="M104.422,11.861l0.457-2.182h1.873l-0.458,2.182H104.422z M106.447,0.017h1.872v0.377h1.901v0.87h-1.901
			v0.574h1.901v0.87h-1.901v0.574h1.901v0.87h-1.901v0.41h-1.872v-0.41h-1.901v-0.87h1.901V2.707h-1.901v-0.87h1.901V1.263h-1.901
			v-0.87h1.901V0.017z M116.199,7.447c-0.019,0.416-0.152,0.766-0.402,1.051c-0.249,0.285-0.55,0.426-0.901,0.426h-10.044V8.055
			h9.253c0.148,0,0.223-0.088,0.223-0.262V7.447h-9.476V6.563h9.476V5.988h-9.476V4.971h11.348v0.065v0.952v0.574v0.82V7.447z
			 M109.235,10.664c0,0.121,0.025,0.188,0.076,0.205c0.051,0.016,0.095,0.023,0.132,0.023h4.869l-0.318,0.969h-5.91
			c-0.157,0-0.291-0.029-0.402-0.09s-0.203-0.141-0.277-0.238s-0.127-0.203-0.16-0.313c-0.032-0.107-0.048-0.213-0.048-0.311V9.385
			h2.039V10.664z M112.843,10.533h-1.971l-0.36-1.148h1.97L112.843,10.533z M114.591,0.017v0.377h1.9v0.87h-1.9v0.574h1.9v0.87h-1.9
			v0.574h1.9v0.87h-1.9v0.41h-1.873v-0.41h-1.9v-0.87h1.9V2.707h-1.9v-0.87h1.9V1.263h-1.9v-0.87h1.9V0.017H114.591z M116.145,9.68
			l0.443,2.182h-1.831l-0.444-2.182H116.145z"/>
	</g>
</g>
</svg>
