<?xml version="1.0" standalone="no"?><!DOCTYPE svg PUBLIC "-//W3C//DTD SVG 1.1//EN" "http://www.w3.org/Graphics/SVG/1.1/DTD/svg11.dtd"><svg t="1558408273104" class="icon" style="" viewBox="0 0 1024 1024" version="1.1" xmlns="http://www.w3.org/2000/svg" p-id="744" xmlns:xlink="http://www.w3.org/1999/xlink" width="200" height="200"><defs><style type="text/css"></style></defs><path d="M781.653333 166.843475H242.320808c-27.090747 0.118949-48.976162 22.133657-48.934788 49.224404v616.437656c0 8.177778 4.036525 15.851313 10.776566 20.41794a24.354909 24.354909 0 0 0 22.864161 2.443636l284.628041-115.312485 285.318465 115.312485a24.322586 24.322586 0 0 0 22.862868-2.443636 24.691071 24.691071 0 0 0 10.777859-20.41794V216.09503c0.028444-27.098505-21.859556-49.118384-48.960647-49.251555z m-122.133979 314.417131h-122.110708v123.275636c0 13.622303-10.962747 24.667798-24.504888 24.667798s-24.504889-11.045495-24.504889-24.667798v-123.275636H354.208323a24.565657 24.565657 0 0 1-17.36404-7.255919 24.591515 24.591515 0 0 1-7.144727-17.406707c0-13.62101 10.965333-24.666505 24.508767-24.666505h134.190546v-123.251071c0-13.62101 10.962747-24.666505 24.504889-24.666505s24.504889 11.045495 24.504888 24.666505v123.278222h122.110708c13.539556 0 24.504889 11.045495 24.504888 24.667798 0.029737 13.566707-10.935596 24.591515-24.504888 24.634182z m0 0" p-id="745" fill="#1296db"></path></svg>