<?xml version="1.0" encoding="utf-8"?>
<!-- Generator: Adobe Illustrator 16.0.0, SVG Export Plug-In . SVG Version: 6.00 Build 0)  -->
<!DOCTYPE svg PUBLIC "-//W3C//DTD SVG 1.1//EN" "http://www.w3.org/Graphics/SVG/1.1/DTD/svg11.dtd">
<svg version="1.1" id="图层_1" xmlns="http://www.w3.org/2000/svg" xmlns:xlink="http://www.w3.org/1999/xlink" x="0px" y="0px"
	 width="23.191px" height="13.752px" viewBox="0 0 23.191 13.752" enable-background="new 0 0 23.191 13.752" xml:space="preserve">
<path fill="#1F98D5" d="M21.034,9.565l-3.243-1.154C11.924,6.142,6.052,3.485,0,4.194c0.699,3.272,2.091,6.073,3.485,7.358
	c-1.021,0.526-1.384,1.188-1.397,2.199c6.698,0,13.396,0,20.095,0c0.666-0.646,1.117-1.781,0.986-3.521
	C22.418,10.028,21.595,9.821,21.034,9.565z M5.336,8.448c-0.516,0-0.933-0.416-0.933-0.932c0-0.515,0.417-0.933,0.933-0.933
	c0.515,0,0.932,0.418,0.932,0.933C6.268,8.032,5.851,8.448,5.336,8.448z"/>
<g>
	<polygon fill="#1F98D5" points="4.096,1.753 4.096,0.359 4.096,0.006 3.742,0.006 1.526,0.006 1.526,0.359 3.742,0.359 
		3.742,1.753 	"/>
	<polygon fill="#1F98D5" points="4.096,3.835 4.096,2.442 4.096,2.088 3.742,2.088 1.526,2.088 1.526,2.442 3.742,2.442 
		3.742,3.835 	"/>
	<polygon fill="#1F98D5" points="13.262,0.311 10.692,0.311 10.692,0.665 13.262,0.665 13.262,2.058 15.898,3.104 15.898,1.356 	"/>
	<polygon fill="#1F98D5" points="7.116,0 4.547,0 4.547,0.354 7.116,0.354 7.116,1.747 9.752,2.794 9.752,1.046 	"/>
	<polygon fill="#1F98D5" points="7.116,2.088 4.547,2.088 4.547,2.442 7.116,2.442 7.116,3.835 9.752,4.882 9.752,3.134 	"/>
	<polygon fill="#1F98D5" points="10.226,1.185 10.226,2.933 12.862,3.979 12.862,2.231 	"/>
	<polygon fill="#1F98D5" points="10.226,3.272 10.226,5.021 12.862,6.066 12.862,4.319 	"/>
	<polygon fill="#1F98D5" points="13.307,2.458 13.307,4.206 15.942,5.252 15.942,3.505 	"/>
	<polygon fill="#1F98D5" points="13.307,4.546 13.307,6.294 15.942,7.34 15.942,5.593 	"/>
	<polygon fill="#1F98D5" points="19.617,8.513 21.579,9.212 21.573,8.985 22.324,9.015 22.324,8.474 21.828,8.14 21.828,7.588 
		19.617,6.099 18.783,6.099 18.783,5.702 18.044,5.702 18.044,5.186 17.351,5.186 17.351,6.099 16.471,6.099 16.471,6.539 
		19.617,6.539 	"/>
</g>
</svg>
