<?xml version="1.0" encoding="utf-8"?>
<!-- Generator: Adobe Illustrator 16.0.0, SVG Export Plug-In . SVG Version: 6.00 Build 0)  -->
<!DOCTYPE svg PUBLIC "-//W3C//DTD SVG 1.1//EN" "http://www.w3.org/Graphics/SVG/1.1/DTD/svg11.dtd">
<svg version="1.1" id="图层_1" xmlns="http://www.w3.org/2000/svg" xmlns:xlink="http://www.w3.org/1999/xlink" x="0px" y="0px"
	 width="20.809px" height="20.227px" viewBox="0 0 20.809 20.227" enable-background="new 0 0 20.809 20.227" xml:space="preserve">
<path fill="#1F98D5" d="M11.74,15.826l-5.624-1.599l0.363,1.439C3.211,15.761,0.358,13.954,0,9.917
	c0.109,5.015,2.691,8.891,7.278,8.922l0.338,1.341L11.74,15.826L11.74,15.826z"/>
<path fill="#1F98D5" d="M1.216,8.929l0.078,0.872c0.077,0.872,0.295,1.631,0.64,2.267c0.642,1.146,1.683,1.896,3.038,2.189
	l-0.256-1.012c-0.327-0.104-0.655-0.216-0.984-0.332c-0.134-0.321-0.248-0.655-0.341-1.001c-0.099-0.366-0.168-0.733-0.214-1.1l0,0
	l-0.007-0.06h1.938c0.039,0.617,0.106,1.235,0.201,1.855l1.44,0.409c-0.138-0.759-0.233-1.514-0.285-2.266h3.776v3.258l4.071,1.156
	l-0.385,0.463l-3.747,4.037c0.675,0.057,1.362,0.043,2.054-0.045l0.048-0.007l0.045-0.007c2.181-0.294,4.136-1.306,5.619-2.788
	c1.324-1.323,2.271-3.023,2.67-4.926l0.014-0.141c0.194-1.003,0.233-2.047,0.1-3.1l-0.007-0.048l-0.007-0.045
	c-0.146-1.088-0.473-2.12-0.945-3.063L19.751,5.46l-0.027-0.056c-0.675-1.316-1.626-2.438-2.762-3.309
	c-1.134-0.871-2.464-1.501-3.913-1.811l-0.062-0.015l-0.023-0.005l0.026-0.017l-0.018-0.004c-1.036-0.214-2.119-0.263-3.21-0.121
	L9.714,0.132L9.67,0.138C8.582,0.286,7.55,0.611,6.604,1.083l-0.038,0.02L6.512,1.13C5.194,1.806,4.073,2.757,3.204,3.892
	C2.332,5.027,1.703,6.357,1.392,7.804L1.378,7.867L1.371,7.901C1.302,8.239,1.25,8.583,1.216,8.929z M17.41,5.343
	c-0.508-0.182-1.018-0.339-1.529-0.473c-0.129-0.494-0.279-0.988-0.455-1.479c0.119,0.081,0.236,0.166,0.351,0.253
	c0.271,0.21,0.53,0.438,0.772,0.68C16.864,4.638,17.152,4.979,17.41,5.343z M18.861,9.393h-2.396
	c-0.005-1.013-0.09-2.021-0.261-3.021c0.729,0.224,1.456,0.5,2.178,0.831c0.078,0.213,0.146,0.431,0.205,0.651
	c0.088,0.327,0.154,0.655,0.198,0.982l0.009,0.066c0.013,0.103,0.023,0.203,0.032,0.307l0.023,0.035
	C18.854,9.294,18.858,9.343,18.861,9.393z M16.042,13.648c0.192-0.969,0.322-1.934,0.383-2.895h2.401
	c-0.08,0.716-0.255,1.401-0.513,2.047C17.561,13.142,16.803,13.423,16.042,13.648z M15.311,16.466c0.14-0.44,0.268-0.881,0.384-1.32
	c0.514-0.128,1.027-0.278,1.538-0.457c-0.206,0.267-0.427,0.519-0.664,0.755C16.186,15.826,15.765,16.169,15.311,16.466z
	 M11.602,10.753h3.467c-0.073,1.077-0.239,2.162-0.487,3.254c-0.986,0.195-1.979,0.299-2.979,0.318L11.602,10.753L11.602,10.753z
	 M11.602,5.644c1.057,0.021,2.107,0.137,3.151,0.354c0.235,1.124,0.352,2.256,0.357,3.395h-3.509V5.644z M11.602,2.041
	c0.356,0.026,0.708,0.08,1.049,0.152l0.05,0.012l0.027,0.007c0.293,0.065,0.582,0.149,0.863,0.25
	c0.313,0.691,0.575,1.388,0.789,2.086c-0.921-0.157-1.848-0.242-2.778-0.259V2.041z M10.241,4.312C9.2,4.365,8.154,4.5,7.104,4.709
	c0.202-0.687,0.45-1.367,0.747-2.046c0.349-0.15,0.712-0.277,1.09-0.379c0.366-0.099,0.731-0.17,1.098-0.214
	c0.067-0.008,0.134-0.015,0.202-0.021V4.312z M6.422,9.393c0.007-1.08,0.112-2.154,0.323-3.222c1.174-0.269,2.339-0.439,3.496-0.503
	v3.725H6.422z M4.543,5.361C4.61,5.265,4.679,5.17,4.75,5.078c0.209-0.272,0.438-0.53,0.68-0.773c0.17-0.17,0.348-0.332,0.532-0.486
	C5.827,4.23,5.708,4.643,5.605,5.057C5.252,5.15,4.897,5.251,4.543,5.361z M3.137,9.393C3.161,8.988,3.216,8.59,3.3,8.203
	l0.013-0.05l0.006-0.027C3.398,7.774,3.503,7.43,3.63,7.094C4.187,6.892,4.745,6.709,5.3,6.547C5.148,7.491,5.073,8.44,5.067,9.393
	H3.137z"/>
</svg>
