<?xml version="1.0" encoding="utf-8"?>
<!-- Generator: Adobe Illustrator 16.0.0, SVG Export Plug-In . SVG Version: 6.00 Build 0)  -->
<!DOCTYPE svg PUBLIC "-//W3C//DTD SVG 1.1//EN" "http://www.w3.org/Graphics/SVG/1.1/DTD/svg11.dtd">
<svg version="1.1" id="图层_1" xmlns="http://www.w3.org/2000/svg" xmlns:xlink="http://www.w3.org/1999/xlink" x="0px" y="0px"
	 width="20.809px" height="20.227px" viewBox="0 0 20.809 20.227" enable-background="new 0 0 20.809 20.227" xml:space="preserve">
<path fill="#1F98D5" d="M9.067,15.826l5.624-1.599l-0.363,1.439c3.269,0.094,6.121-1.714,6.479-5.751
	c-0.109,5.015-2.691,8.891-7.278,8.922l-0.338,1.341L9.067,15.826L9.067,15.826z"/>
<path fill="#1F98D5" d="M19.437,7.901L19.43,7.867l-0.014-0.063c-0.311-1.447-0.939-2.777-1.813-3.912
	c-0.869-1.135-1.99-2.086-3.309-2.762l-0.054-0.027l-0.038-0.02c-0.945-0.474-1.978-0.798-3.065-0.945l-0.044-0.006l-0.048-0.006
	c-1.091-0.142-2.174-0.092-3.21,0.121L7.818,0.251l0.026,0.017L7.821,0.273L7.759,0.287C6.31,0.596,4.98,1.226,3.846,2.097
	C2.711,2.968,1.759,4.088,1.085,5.406L1.057,5.46L1.038,5.5C0.564,6.444,0.239,7.476,0.092,8.564L0.086,8.609L0.079,8.656
	c-0.134,1.053-0.095,2.097,0.1,3.1l0.014,0.141c0.397,1.901,1.346,3.603,2.67,4.926c1.482,1.482,3.438,2.494,5.619,2.788
	l0.045,0.008l0.048,0.006c0.691,0.088,1.379,0.102,2.054,0.045L6.879,15.63l-0.384-0.463l4.071-1.156v-3.258h3.775
	c-0.051,0.752-0.146,1.507-0.284,2.266l1.44-0.409c0.094-0.62,0.162-1.238,0.201-1.855h1.938l-0.008,0.061l0,0
	c-0.044,0.365-0.114,0.732-0.213,1.1c-0.093,0.346-0.207,0.68-0.341,1.001c-0.329,0.116-0.657,0.228-0.985,0.332l-0.255,1.012
	c1.355-0.295,2.396-1.045,3.038-2.189c0.344-0.636,0.563-1.395,0.64-2.267l0.077-0.872C19.558,8.583,19.506,8.239,19.437,7.901z
	 M4.258,4.323c0.243-0.242,0.501-0.47,0.773-0.68c0.114-0.087,0.231-0.172,0.35-0.253c-0.174,0.491-0.324,0.985-0.454,1.48
	C4.416,5.004,3.905,5.162,3.397,5.343C3.655,4.979,3.943,4.638,4.258,4.323z M1.957,9.245L1.98,9.209
	C1.989,9.107,2,9.005,2.012,8.904l0.009-0.066C2.065,8.51,2.131,8.182,2.219,7.855c0.06-0.222,0.127-0.438,0.204-0.651
	c0.723-0.331,1.449-0.607,2.179-0.831C4.432,7.373,4.347,8.38,4.342,9.393H1.947C1.95,9.343,1.954,9.294,1.957,9.245z M2.494,12.8
	c-0.258-0.646-0.434-1.331-0.513-2.047h2.4c0.062,0.961,0.191,1.926,0.384,2.895C4.004,13.423,3.247,13.142,2.494,12.8z
	 M4.239,15.444c-0.237-0.236-0.458-0.488-0.664-0.755c0.511,0.179,1.024,0.329,1.538,0.457c0.116,0.439,0.244,0.88,0.384,1.32
	C5.043,16.169,4.622,15.826,4.239,15.444z M9.206,14.326c-0.999-0.021-1.992-0.123-2.979-0.318
	c-0.249-1.092-0.414-2.177-0.487-3.254h3.467L9.206,14.326L9.206,14.326z M9.206,9.393H5.697c0.007-1.139,0.122-2.271,0.357-3.395
	C7.098,5.78,8.149,5.664,9.206,5.644V9.393z M9.206,4.289C8.275,4.305,7.349,4.39,6.427,4.547C6.64,3.849,6.902,3.153,7.216,2.461
	c0.282-0.101,0.57-0.185,0.864-0.25l0.027-0.007l0.05-0.012C8.499,2.12,8.849,2.067,9.206,2.04V4.289z M10.566,2.05
	c0.066,0.007,0.135,0.014,0.202,0.021c0.365,0.044,0.731,0.115,1.098,0.214c0.377,0.102,0.741,0.229,1.09,0.379
	c0.297,0.679,0.545,1.359,0.747,2.046c-1.049-0.209-2.095-0.346-3.137-0.397V2.05z M10.566,9.393V5.668
	c1.157,0.063,2.322,0.234,3.496,0.503c0.211,1.066,0.315,2.142,0.322,3.222H10.566z M15.202,5.057
	c-0.103-0.414-0.222-0.827-0.355-1.239c0.185,0.154,0.362,0.316,0.532,0.486c0.243,0.243,0.471,0.501,0.68,0.773
	c0.07,0.093,0.14,0.188,0.207,0.282C15.91,5.251,15.556,5.15,15.202,5.057z M15.74,9.393c-0.005-0.953-0.081-1.901-0.233-2.846
	c0.557,0.162,1.113,0.345,1.673,0.546c0.127,0.336,0.23,0.681,0.312,1.032l0.006,0.027l0.012,0.05
	c0.083,0.388,0.14,0.784,0.163,1.189L15.74,9.393L15.74,9.393z"/>
</svg>
