<?xml version="1.0" encoding="utf-8"?>
<!-- Generator: Adobe Illustrator 16.0.0, SVG Export Plug-In . SVG Version: 6.00 Build 0)  -->
<!DOCTYPE svg PUBLIC "-//W3C//DTD SVG 1.1//EN" "http://www.w3.org/Graphics/SVG/1.1/DTD/svg11.dtd">
<svg version="1.1" id="图层_1" xmlns="http://www.w3.org/2000/svg" xmlns:xlink="http://www.w3.org/1999/xlink" x="0px" y="0px"
	 width="27.615px" height="18.645px" viewBox="0 0 27.615 18.645" enable-background="new 0 0 27.615 18.645" xml:space="preserve">
<path fill="#1F98D5" d="M23.199,12.083c1.271-0.848,2.077-2.123,2.354-3.513c0.275-1.385,0.024-2.878-0.818-4.146
	c-0.846-1.271-2.125-2.076-3.512-2.354c-1.388-0.273-2.877-0.024-4.146,0.818C15.806,3.733,15,5.014,14.722,6.4
	c-0.027,0.134-0.089,0.647-0.104,0.781L12.69,6.827c0.024-0.272,0.063-0.543,0.118-0.813c0.376-1.877,1.468-3.606,3.187-4.753
	c1.718-1.145,3.736-1.483,5.613-1.107c1.875,0.379,3.606,1.472,4.752,3.188l0,0c1.146,1.719,1.484,3.737,1.106,5.614
	c-0.376,1.876-1.469,3.604-3.188,4.752c-0.381,0.253-0.653,0.467-1.061,0.644L23.199,12.083z"/>
<path fill="#1F98D5" d="M17.013,5.249l2.332,2.332c-0.039,0.106-0.059,0.228-0.059,0.352c0,0.22,0.064,0.424,0.178,0.595
	L19.28,8.965l1.145,0.479l0.191-0.458c0.035-0.009,0.068-0.018,0.104-0.027l0.715,0.716l0.506-0.507L21.284,8.51
	c0.105-0.167,0.166-0.366,0.166-0.577c0-0.206-0.057-0.396-0.157-0.562l0.923-2.2l-1.145-0.48l-0.913,2.183
	c-0.132,0.024-0.257,0.073-0.366,0.146l-2.273-2.271L17.013,5.249z"/>
<polygon fill="#1F98D5" points="6.571,6.352 3.4,2.918 5.708,2.918 5.708,0 7.434,0 7.434,2.918 9.742,2.918 "/>
<path fill="#1F98D5" d="M0,9.109l2.336-0.728v6.229l-0.251,0.021v-1.776H1.711v1.979v0.203l0.203-0.019l0.422-0.038v3.627H0V9.109
	L0,9.109z M6.88,7.254l14.938,2.548v8.834H6.88V7.254L6.88,7.254z M8.209,9.048v8.24c0,0.309,0.25,0.561,0.56,0.561
	s0.562-0.252,0.562-0.561v-8.24c0-0.313-0.251-0.563-0.562-0.563C8.459,8.486,8.209,8.738,8.209,9.048L8.209,9.048z M19.916,10.636
	v6.754c0,0.253,0.206,0.459,0.461,0.459c0.253,0,0.458-0.206,0.458-0.459v-6.754c0-0.253-0.206-0.459-0.458-0.459
	C20.121,10.177,19.916,10.383,19.916,10.636L19.916,10.636z M17.86,10.379v6.995c0,0.262,0.214,0.475,0.477,0.475
	c0.264,0,0.477-0.213,0.477-0.475v-6.995c0-0.263-0.213-0.479-0.477-0.479C18.074,9.903,17.86,10.116,17.86,10.379L17.86,10.379z
	 M15.585,10.116v7.236c0,0.273,0.221,0.493,0.493,0.493s0.493-0.22,0.493-0.493v-7.236c0-0.271-0.221-0.493-0.493-0.493
	S15.585,9.845,15.585,10.116L15.585,10.116z M13.305,9.797v7.538c0,0.284,0.229,0.514,0.514,0.514c0.283,0,0.513-0.229,0.513-0.514
	V9.797c0-0.284-0.23-0.514-0.513-0.514C13.535,9.283,13.305,9.513,13.305,9.797L13.305,9.797z M10.832,9.424v7.888
	c0,0.297,0.24,0.537,0.537,0.537c0.297,0,0.538-0.24,0.538-0.537V9.424c0-0.296-0.241-0.536-0.538-0.536
	C11.072,8.888,10.832,9.128,10.832,9.424L10.832,9.424z M2.707,8.267L6.038,7.23v11.382H2.707V8.267z"/>
</svg>
