<?xml version="1.0" encoding="utf-8"?>
<!-- Generator: Adobe Illustrator 16.0.0, SVG Export Plug-In . SVG Version: 6.00 Build 0)  -->
<!DOCTYPE svg PUBLIC "-//W3C//DTD SVG 1.1//EN" "http://www.w3.org/Graphics/SVG/1.1/DTD/svg11.dtd">
<svg version="1.1" id="图层_1" xmlns="http://www.w3.org/2000/svg" xmlns:xlink="http://www.w3.org/1999/xlink" x="0px" y="0px"
	 width="19.542px" height="15.096px" viewBox="0 0 19.542 15.096" enable-background="new 0 0 19.542 15.096" xml:space="preserve">
<path fill="#1F98D5" d="M15,9.043c-0.078-0.985-0.15-1.972-0.228-2.957c-0.239-0.021-0.601-0.021-0.84-0.044
	c-0.074,1.55-0.026,3.079-0.099,4.629c-0.225-0.488-0.51-0.949-1.289-1.179c-0.162,0.167-0.209,0.218-0.369,0.386
	c0.529,0.583,0.793,1.354,1.002,2.083l0.162,1.646c0.183,0.365,0.365,0.729,0.545,1.092c1.056-0.035,1.912-0.065,2.967-0.103
	c0.105-0.224,0.212-0.447,0.316-0.674c0.183-1.242,0.449-3.622,0.438-4.877c-0.313-0.063-0.469-0.131-0.783-0.195
	c-0.035,0.125-0.115,0.674-0.152,0.796c-0.015-0.427-0.029-0.858-0.043-1.288C16.38,8.306,16.128,8.252,15.88,8.2
	c-0.022,0.121-0.043,0.24-0.065,0.359c-0.019-0.186-0.036-0.37-0.056-0.558c-0.229-0.028-0.457-0.058-0.688-0.086
	C15.046,8.292,15.023,8.667,15,9.043L15,9.043z"/>
<path fill="#1F98D5" d="M8.298,2.723v0.45C7.188,2.93,6.093,2.697,5.122,2.577C4.193,2.459,3.375,2.442,2.758,2.613V2.156
	c0.666-0.153,1.5-0.133,2.426-0.018C6.153,2.26,7.22,2.483,8.298,2.723L8.298,2.723z"/>
<path fill="#1F98D5" d="M8.298,10.304v0.453c-1.11-0.246-2.205-0.479-3.176-0.601c-0.929-0.115-1.747-0.132-2.364,0.036V9.737
	c0.666-0.152,1.5-0.132,2.426-0.016C6.153,9.841,7.22,10.067,8.298,10.304L8.298,10.304z"/>
<path fill="#1F98D5" d="M8.298,7.659v0.453c-1.11-0.244-2.205-0.479-3.176-0.6C4.193,7.397,3.375,7.379,2.758,7.549V7.091
	c0.666-0.15,1.5-0.132,2.426-0.016C6.153,7.197,7.22,7.42,8.298,7.659L8.298,7.659z"/>
<path fill="#1F98D5" d="M8.298,5.192v0.452c-1.11-0.245-2.205-0.479-3.176-0.6C4.193,4.928,3.375,4.911,2.758,5.082V4.625
	c0.666-0.152,1.5-0.131,2.426-0.018C6.153,4.729,7.22,4.952,8.298,5.192L8.298,5.192z"/>
<path fill="#1F98D5" d="M11.315,5.227v0.455c0.653-0.154,1.299-0.306,1.915-0.424V5.238l0.072,0.007
	c0.334-0.063,0.658-0.119,0.97-0.16c0.877-0.115,1.651-0.133,2.231,0.041V4.667c-0.627-0.154-1.414-0.135-2.289-0.02
	C13.313,4.77,12.32,4.991,11.315,5.227L11.315,5.227z"/>
<path fill="#1F98D5" d="M11.315,2.716V3.17c1.033-0.242,2.052-0.475,2.958-0.594c0.877-0.117,1.65-0.135,2.23,0.039V2.158
	c-0.627-0.155-1.414-0.136-2.287-0.02C13.313,2.258,12.32,2.481,11.315,2.716L11.315,2.716z"/>
<path fill="#1F98D5" d="M9.011,1.598C7.666,1.279,6.329,0.971,5.11,0.826c-1.166-0.14-2.222-0.134-3.078,0.147V11.88
	c2.198-0.408,4.417,0.057,6.635,0.521l0.344,0.073V1.598L9.011,1.598z M18.123,1.696l1.42,0.273v12.328
	c-0.541-0.081-1.072-0.173-1.646-0.245l0.003-0.021c0.119-0.816,0.214-1.641,0.293-2.459c0.082-0.829,0.158-1.701,0.151-2.534
	l-0.006-0.593l-0.58-0.12c-0.125-0.027-0.25-0.06-0.371-0.094V0.973c-0.856-0.281-1.914-0.287-3.079-0.147
	c-1.218,0.146-2.556,0.453-3.901,0.772v10.876l0.346-0.073c0.563-0.116,1.125-0.235,1.688-0.339l0.012,0.038l0.17,1.715l0.06,0.121
	l0.083,0.167c-0.576,0.074-1.201,0.175-1.885,0.301V14.8c-1.471,0.396-0.746,0.396-2.218,0v-0.396
	C4.007,13.538,2.064,13.988,0,14.298V1.969L1.294,1.72V0.717V0.472l0.232-0.096c1.026-0.419,2.289-0.448,3.669-0.282
	c1.35,0.16,2.81,0.507,4.271,0.854l0.243,0.058l0.243-0.058c1.461-0.348,2.92-0.693,4.27-0.854c1.381-0.166,2.645-0.137,3.671,0.282
	l0.229,0.096v0.244V1.696L18.123,1.696z"/>
</svg>
