<?xml version="1.0" encoding="utf-8"?>
<!-- Generator: Adobe Illustrator 16.0.0, SVG Export Plug-In . SVG Version: 6.00 Build 0)  -->
<!DOCTYPE svg PUBLIC "-//W3C//DTD SVG 1.1//EN" "http://www.w3.org/Graphics/SVG/1.1/DTD/svg11.dtd">
<svg version="1.1" id="图层_1" xmlns="http://www.w3.org/2000/svg" xmlns:xlink="http://www.w3.org/1999/xlink" x="0px" y="0px"
	 width="27.615px" height="18.645px" viewBox="0 0 27.615 18.645" enable-background="new 0 0 27.615 18.645" xml:space="preserve">
<path fill="#1F98D5" d="M28.792,18.823"/>
<g>
	<path fill="none" d="M6.577,2.055c-1.603,0.21-3.28,0.428-4.833,0.359v14.49c1.583,0.073,3.327-0.124,4.946-0.308
		c1.891-0.212,3.626-0.41,4.943-0.156V1.969C10.568,1.534,8.639,1.786,6.577,2.055z M7.049,5.594
		c1.162-0.206,2.478-0.418,3.716-0.35c0,0.231,0,0.462,0,0.692c-1.527-0.035-2.951,0.337-3.716,0.35
		C7.049,6.055,7.049,5.823,7.049,5.594z M7.049,7.517c1.162-0.205,2.478-0.418,3.716-0.349c0,0.23,0,0.462,0,0.691
		C9.238,7.826,7.814,8.198,7.049,8.21C7.049,7.979,7.049,7.748,7.049,7.517z M2.986,4.014l3.093-0.33v5.218L2.986,9.231V4.014z
		 M10.766,14.672c-1.528-0.034-6.195,0.812-7.641,0.741c0-0.229,0-0.461,0-0.691c1.786,0.001,6.402-0.811,7.641-0.741
		C10.766,14.211,10.766,14.442,10.766,14.672z M10.766,12.378c-1.528-0.035-6.195,0.81-7.641,0.741c0-0.232,0-0.464,0-0.692
		c1.786,0.001,6.402-0.811,7.641-0.741C10.766,11.914,10.766,12.147,10.766,12.378z M10.766,10.264
		c-1.528-0.034-6.195,0.81-7.641,0.74c0-0.228,0-0.46,0-0.69c1.786,0.002,6.402-0.811,7.641-0.742
		C10.766,9.802,10.766,10.034,10.766,10.264z M10.765,4.298C9.238,4.264,7.814,4.636,7.049,4.647c0-0.23,0-0.461,0-0.691
		c1.162-0.206,2.478-0.418,3.716-0.35C10.765,3.837,10.765,4.067,10.765,4.298z"/>
	<path fill="#1F98D5" d="M3.125,12.427c0,0.229,0,0.46,0,0.692c1.446,0.068,6.113-0.776,7.641-0.741c0-0.231,0-0.464,0-0.692
		C9.527,11.616,4.911,12.428,3.125,12.427z"/>
	<path fill="#1F98D5" d="M7.049,3.955c0,0.23,0,0.461,0,0.691c0.765-0.011,2.189-0.383,3.716-0.349c0-0.231,0-0.461,0-0.692
		C9.527,3.537,8.211,3.749,7.049,3.955z"/>
	<path fill="#1F98D5" d="M3.125,10.314c0,0.23,0,0.463,0,0.69c1.446,0.069,6.113-0.774,7.641-0.74c0-0.229,0-0.462,0-0.692
		C9.527,9.503,4.911,10.316,3.125,10.314z"/>
	<path fill="#1F98D5" d="M10.765,5.244c-1.238-0.068-2.554,0.144-3.716,0.35c0,0.229,0,0.461,0,0.692
		c0.765-0.013,2.189-0.385,3.716-0.35C10.765,5.706,10.765,5.476,10.765,5.244z"/>
	<polygon fill="#1F98D5" points="6.079,3.684 2.986,4.014 2.986,9.231 6.079,8.902 	"/>
	<path fill="#1F98D5" d="M10.765,7.168C9.527,7.099,8.211,7.312,7.049,7.517c0,0.231,0,0.462,0,0.693
		c0.765-0.013,2.189-0.384,3.716-0.351C10.765,7.63,10.765,7.399,10.765,7.168z"/>
	<path fill="#1F98D5" d="M3.125,14.722c0,0.23,0,0.462,0,0.691c1.446,0.07,6.113-0.775,7.641-0.741c0-0.23,0-0.461,0-0.691
		C9.527,13.911,4.911,14.723,3.125,14.722z"/>
	<path fill="#1F98D5" d="M17.696,13.406c-0.801-1.795,0.966-3.979,2.933-3.339C18.991,10.833,17.991,11.831,17.696,13.406z"/>
	<path fill="#1F98D5" d="M17.696,13.406c0.295-1.574,1.295-2.572,2.933-3.339C18.662,9.427,16.896,11.611,17.696,13.406z"/>
	<path fill="#1F98D5" d="M27.146,16.508l-2.053-1.554c-0.262-0.201-0.582-0.274-0.886-0.23c0.454-0.897,0.604-1.896,0.474-2.854
		c-0.17-1.232-0.811-2.402-1.879-3.212c-1.068-0.813-2.369-1.113-3.603-0.944c-1.232,0.17-2.401,0.81-3.214,1.88
		c-0.813,1.071-1.112,2.369-0.941,3.601c0.17,1.234,0.809,2.403,1.881,3.215c1.068,0.813,2.367,1.113,3.602,0.939
		c0.979-0.133,1.922-0.563,2.674-1.275c0.044,0.3,0.197,0.581,0.455,0.774l2.053,1.557c0.521,0.395,1.271,0.293,1.667-0.229
		C27.772,17.654,27.668,16.904,27.146,16.508z M23.106,12.985c-0.102,0.821-0.512,1.604-1.215,2.152
		c-0.701,0.551-1.561,0.763-2.382,0.664c-0.819-0.101-1.601-0.514-2.149-1.216c-0.551-0.702-0.764-1.563-0.664-2.379
		c0.101-0.821,0.513-1.604,1.215-2.154c0.701-0.548,1.561-0.762,2.381-0.662c0.818,0.1,1.604,0.514,2.152,1.216
		C22.994,11.307,23.206,12.166,23.106,12.985z"/>
	<path fill="#1F98D5" d="M22.271,4.171c-1.785,0.001-6.4-0.812-7.64-0.741c0,0.23,0,0.461,0,0.692
		c1.527-0.034,6.192,0.811,7.64,0.741C22.271,4.633,22.271,4.402,22.271,4.171z"/>
	<path fill="#1F98D5" d="M14.631,5.543c0,0.229,0,0.461,0,0.691c1.527-0.033,6.192,0.812,7.64,0.742c0-0.229,0-0.462,0-0.692
		C20.485,6.286,15.87,5.474,14.631,5.543z"/>
	<path fill="#1F98D5" d="M14.687,16.323c-0.471,0.007-0.911,0.042-1.31,0.119V1.969c1.065-0.435,2.995-0.183,5.058,0.086
		c1.603,0.21,3.278,0.428,4.83,0.359v5.343c0.643,0.301,1.233,0.708,1.746,1.205v-7.5l-0.992-0.861
		c-1.59,0.222-3.523-0.031-5.361-0.27c-2.395-0.313-4.632-0.604-6.151,0.123c-1.519-0.728-3.76-0.437-6.154-0.123
		C4.516,0.57,2.58,0.823,0.992,0.601L0,1.462v16.25l0.778,0.866c1.964,0.221,4.124-0.024,6.104-0.248
		c2.307-0.261,4.347-0.492,5.099,0.078l0.526-0.263l0.523,0.263c0.458-0.347,1.395-0.397,2.577-0.323l0.319,0.026
		c-0.168-0.171-0.325-0.352-0.475-0.542C15.147,17.183,14.892,16.764,14.687,16.323z M11.633,16.441
		c-1.317-0.254-3.052-0.056-4.943,0.156c-1.619,0.184-3.363,0.381-4.946,0.308V2.414c1.553,0.068,3.23-0.149,4.833-0.359
		c2.062-0.269,3.991-0.521,5.056-0.086V16.441z"/>
</g>
</svg>
