<?xml version="1.0" encoding="utf-8"?>
<!-- Generator: Adobe Illustrator 16.0.0, SVG Export Plug-In . SVG Version: 6.00 Build 0)  -->
<!DOCTYPE svg PUBLIC "-//W3C//DTD SVG 1.1//EN" "http://www.w3.org/Graphics/SVG/1.1/DTD/svg11.dtd">
<svg version="1.1" id="图层_1" xmlns="http://www.w3.org/2000/svg" xmlns:xlink="http://www.w3.org/1999/xlink" x="0px" y="0px"
	 width="16.154px" height="19.949px" viewBox="0 0 16.154 19.949" enable-background="new 0 0 16.154 19.949" xml:space="preserve">
<path fill="#1F98D5" d="M16.154,11.1c0-0.148,0-0.297,0-0.446c-0.425-1.163-0.956-2.269-1.803-3.193
	c-1.185-1.292-2.206-1.832-4.514-2.386c0.428-0.741,0.859-1.466,1.267-2.206c0.588-1.071,0.066-2.13-1.129-2.283
	C9.23,0.489,8.726,0.882,8.369,1.49C7.798,2.464,7.241,3.446,6.676,4.424c-0.086,0.15-0.181,0.293-0.35,0.428
	c0-1.033,0.002-2.064-0.001-3.098C6.323,1.517,6.338,1.272,6.284,1.045C6.097,0.27,5.459-0.096,4.557,0.022
	c-0.67,0.089-1.173,0.68-1.176,1.41c-0.006,1.814,0,3.632-0.004,5.446c0,0.168-0.027,0.336-0.043,0.503
	C3.292,7.384,3.25,7.387,3.208,7.389C3.146,7.024,3.083,6.658,3.025,6.292C2.935,5.72,2.885,5.138,2.749,4.577
	C2.668,4.245,2.5,3.906,2.29,3.632c-0.373-0.486-0.917-0.588-1.489-0.43C0.252,3.352,0.006,3.809,0,4.318
	c-0.008,0.678,0.056,1.364,0.165,2.033c0.409,2.506,0.805,5.015,1.292,7.506c0.491,2.504,2.417,5.503,6.286,6.03
	c3.468,0.474,6.969-1.562,8.104-4.827c0.114-0.333,0.205-0.675,0.307-1.013c0-0.268,0-0.535,0-0.804
	c-0.244-0.26-0.463-0.551-0.741-0.768c-0.206-0.161-0.182-0.234-0.033-0.405C15.652,11.761,15.897,11.427,16.154,11.1z
	 M8.943,17.391c-2.659,0.065-4.783-1.738-5.01-4.568c3.234,0,6.468,0,9.701,0C13.582,15.225,11.721,17.322,8.943,17.391z
	 M3.955,11.942c0.003-1.137,0.604-2.148,2.143-3.613c-0.169-0.326-0.37-0.655-0.51-1.008C5.533,7.184,5.618,6.994,5.64,6.828
	c0.154,0.068,0.367,0.094,0.454,0.213C6.319,7.349,6.489,7.7,6.704,8.072c1.42-0.769,2.84-0.695,4.278,0.032
	c0.225-0.373,0.418-0.738,0.658-1.072c0.072-0.102,0.269-0.115,0.407-0.169c0.015,0.14,0.083,0.307,0.03,0.413
	c-0.175,0.356-0.393,0.693-0.612,1.067c1.232,0.886,2.019,2.031,2.222,3.599C10.395,11.942,7.175,11.942,3.955,11.942z"/>
<path fill="#1F98D5" d="M6.537,10.532c-0.301,0-0.57-0.273-0.563-0.574C5.979,9.659,6.26,9.385,6.558,9.41
	c0.331,0.025,0.509,0.233,0.539,0.55C7.124,10.261,6.843,10.532,6.537,10.532z"/>
<path fill="#1F98D5" d="M11.182,10.532c-0.302,0-0.569-0.273-0.563-0.574c0.005-0.299,0.287-0.571,0.584-0.548
	c0.331,0.025,0.51,0.233,0.539,0.55C11.77,10.261,11.488,10.532,11.182,10.532z"/>
</svg>
