<?xml version="1.0" encoding="utf-8"?>
<!-- Generator: Adobe Illustrator 16.0.0, SVG Export Plug-In . SVG Version: 6.00 Build 0)  -->
<!DOCTYPE svg PUBLIC "-//W3C//DTD SVG 1.1//EN" "http://www.w3.org/Graphics/SVG/1.1/DTD/svg11.dtd">
<svg version="1.1" id="图层_1" xmlns="http://www.w3.org/2000/svg" xmlns:xlink="http://www.w3.org/1999/xlink" x="0px" y="0px"
	 width="199.25px" height="45.625px" viewBox="0 0 199.25 45.625" enable-background="new 0 0 199.25 45.625" xml:space="preserve">
<g>
	<g>
		<g>
			<rect x="30.538" y="9.067" fill="#E2E2E2" width="9.139" height="27.417"/>
		</g>
	</g>
	<g>
		<g>
			<g>
				<rect y="18.197" fill="#E2E2E2" width="48.668" height="9.154"/>
				<path fill="#E2E2E2" d="M0,29.888v6.821c0,1.99,1.683,3.594,3.759,3.594h17.641V29.888H0z"/>
				<path fill="#E2E2E2" d="M21.399,15.713V5.072H3.759C1.683,5.072,0,6.71,0,8.73v6.982H21.399z"/>
			</g>
		</g>
	</g>
	<rect x="39.722" fill="#ECECEC" width="9.138" height="9.137"/>
	<rect x="48.684" y="27.345" fill="#ECECEC" width="9.14" height="9.14"/>
	<rect x="21.399" y="36.484" fill="#ECECEC" width="9.139" height="9.138"/>
</g>
<path fill="#E2E2E2" d="M71.256,9.088h5.555l-1.615,5.191v21.387l-5.224,2.098V19.381h-2.258L71.256,9.088z M102.013,36.691h-24.38
	V33.01l13.793-19.907H77.732l1.038-3.788h18.883v3.97L84.011,33.01l22.761,0.016L102.013,36.691z"/>
<path fill="#E2E2E2" d="M104.245,14.325h-2.422v-3.44h2.817l0.197-1.797h4.911l-0.214,1.797h6.278v22.457l-3.608,3.563h-3.115
	v-3.563h1.747V14.325h-1.681l-2.215,18.7l-5.282,3.533L104.245,14.325z M117.395,9.646h13.661v22.941l-5.422,4.254h-8.239V9.646z
	 M126.014,13.328h-3.576v19.863h3.576V13.328z"/>
<path fill="#E2E2E2" d="M146.249,32.814l5.257,4.135h-5.554l-2.835-2.039l-2.702,2.039h-5.932l5.488-4.135l-3.297-2.477v-2.264h-1.5
	v-3.199h1.5v-1.373h4.285v1.373h4.514v-1.373h4.335v1.373h1.745l-1.3,3.199h-0.496v2.264L146.249,32.814z M136.84,16.936h3.839
	l-1.712,5.147h-3.891L136.84,16.936z M135.965,9.707h3.775l0.707,3.305h0.727V9.164h4.054v3.848h0.691l0.79-3.305h3.709l-0.71,3.305
	h1.748l-1.548,3.215h-4.681v5.297l-4.054,1.496v-6.793h-6.047v-3.215h1.515L135.965,9.707z M143.184,30.701l2.273-1.584l0.017-1.043
	h-4.514v0.996L143.184,30.701z M145.854,16.996h3.79l1.631,5.087h-3.922L145.854,16.996z M151.34,15.352l2.556-6.369h5.008
	l-0.478,1.344h7.58l-1.434,3.455h-7.415l-0.658,1.57H151.34z M158.393,20.965l2.012-4.889h5.09l-4.383,10.867l4.566,10.021h-5.273
	l-1.748-3.939l-1.582,3.939h-5.307l4.236-9.945l-4.384-9.616h5.142L158.393,20.965z"/>
<path fill="#E2E2E2" d="M168.841,15.713l1.355-3.35h2.664V9.359h4.844v3.004h2.621l-1.465,3.35h-1.156v2.702h2.423l-2.423,4.56
	v10.354l-4.496,3.637h-12.753v-3.41h12.405v-4.273h-4.185l4.185-7.953v-5.615H168.841z M180.589,9.436h18.242v6.73l-3.444,3.199
	h-0.543v2.732h4.135l-1.301,3.094h-2.834v2.145h3.871v6.443l-4.152,3.154h-7.876v-9.598h3.196v-2.145h-2.965v-3.094h2.965v-2.732
	h-4.416v16.406l-4.878,1.887V9.436z M193.871,12.695h-8.404v3.41h8.404V12.695z M193.756,30.443h-2.095v3.441h2.095V30.443z"/>
</svg>
