<?xml version="1.0" encoding="utf-8"?>
<!-- Generator: Adobe Illustrator 16.0.0, SVG Export Plug-In . SVG Version: 6.00 Build 0)  -->
<!DOCTYPE svg PUBLIC "-//W3C//DTD SVG 1.1//EN" "http://www.w3.org/Graphics/SVG/1.1/DTD/svg11.dtd">
<svg version="1.1" id="图层_1" xmlns="http://www.w3.org/2000/svg" xmlns:xlink="http://www.w3.org/1999/xlink" x="0px" y="0px"
	 width="18.742px" height="22.633px" viewBox="0 0 18.742 22.633" enable-background="new 0 0 18.742 22.633" xml:space="preserve">
<path fill="#1F98D5" d="M0,13.328v9.305h18.742v-9.305H0z M2.756,21.066c0,0.277-0.228,0.506-0.506,0.506s-0.506-0.229-0.506-0.506
	v-6.023c0-0.279,0.228-0.506,0.506-0.506s0.506,0.227,0.506,0.506V21.066z M5.155,21.066c0,0.277-0.228,0.506-0.506,0.506
	s-0.506-0.229-0.506-0.506c0-2.008,0-4.017,0-6.023c0-0.279,0.228-0.506,0.506-0.506s0.506,0.227,0.506,0.506
	C5.155,17.051,5.155,19.059,5.155,21.066z M7.554,21.066c0,0.277-0.228,0.506-0.506,0.506c-0.278,0-0.506-0.229-0.506-0.506
	c0-2.008,0-4.017,0-6.023c0-0.279,0.228-0.506,0.506-0.506c0.278,0,0.506,0.227,0.506,0.506C7.554,17.051,7.554,19.059,7.554,21.066
	z M9.953,21.066c0,0.277-0.228,0.506-0.506,0.506l0,0c-0.278,0-0.506-0.229-0.506-0.506c0-2.008,0-4.017,0-6.023
	c0-0.279,0.228-0.506,0.506-0.506l0,0c0.278,0,0.506,0.227,0.506,0.506C9.953,17.051,9.953,19.059,9.953,21.066z M12.352,21.066
	c0,0.277-0.228,0.506-0.505,0.506c-0.278,0-0.506-0.229-0.506-0.506c0-2.008,0-4.017,0-6.023c0-0.279,0.228-0.506,0.506-0.506
	c0.277,0,0.505,0.227,0.505,0.506C12.352,17.051,12.352,19.059,12.352,21.066z M14.751,21.066c0,0.277-0.229,0.506-0.506,0.506
	c-0.279,0-0.507-0.229-0.507-0.506c0-2.008,0-4.017,0-6.023c0-0.279,0.228-0.506,0.507-0.506c0.277,0,0.506,0.227,0.506,0.506
	C14.751,17.051,14.751,19.059,14.751,21.066z M17.149,21.066c0,0.277-0.228,0.506-0.506,0.506s-0.505-0.229-0.505-0.506v-6.023
	c0-0.279,0.229-0.506,0.505-0.506c0.278,0,0.506,0.227,0.506,0.506V21.066z"/>
<path fill="#1F98D5" d="M18.585,13.328v-0.162c0-0.285-0.116-0.545-0.305-0.732c-0.188-0.188-0.447-0.305-0.732-0.305
	c-0.104,0-0.205,0.016-0.301,0.045l-5.82-2.227c0.512-0.854,0.353-2.154-0.512-3.031c-0.209-0.211-0.447-0.398-0.662-0.588h0.893
	l1.126-3.939V0h-5.58v2.389l1.129,3.939H8.77c0.085,0.529,0.34,0.84,0.825,1.299c0.048,0.045,0.099,0.092,0.148,0.141
	c0.584,0.57,0.561,1.252,0.135,1.59L9.546,9.229L9.418,9.18l-0.13,0.05l-0.6,0.234C8.188,9.247,7.961,8.7,8.121,7.958
	c-0.677,0.024-0.937,1.11-0.547,1.94l-5.893,2.295c-0.112-0.041-0.233-0.064-0.359-0.064c-0.286,0-0.545,0.117-0.733,0.305
	c-0.188,0.188-0.305,0.447-0.305,0.732v0.162H0v0.57h18.742v-0.57H18.585z M16.511,13.166v0.162H2.36v-0.162
	c0-0.152-0.033-0.297-0.093-0.428l5.779-2.252c0.405,0.311,0.944,0.426,1.465,0.422c0.496-0.004,0.988-0.133,1.376-0.393
	l5.731,2.189C16.55,12.844,16.511,13.002,16.511,13.166z"/>
</svg>
