<?xml version="1.0" encoding="utf-8"?>
<!-- Generator: Adobe Illustrator 16.0.0, SVG Export Plug-In . SVG Version: 6.00 Build 0)  -->
<!DOCTYPE svg PUBLIC "-//W3C//DTD SVG 1.1//EN" "http://www.w3.org/Graphics/SVG/1.1/DTD/svg11.dtd">
<svg version="1.1" id="图层_1" xmlns="http://www.w3.org/2000/svg" xmlns:xlink="http://www.w3.org/1999/xlink" x="0px" y="0px"
	 width="595.28px" height="841.89px" viewBox="0 0 595.28 841.89" enable-background="new 0 0 595.28 841.89" xml:space="preserve">
<path fill-rule="evenodd" clip-rule="evenodd" fill="#8FC31F" d="M374.92,466.449c1.352-0.9,2.211-2.26,2.506-3.734
	s0.029-3.063-0.871-4.414s-2.262-2.209-3.736-2.506c-1.475-0.295-3.061-0.029-4.412,0.871c-1.352,0.898-2.209,2.26-2.506,3.736
	c-0.027,0.141-0.094,0.688-0.113,0.83l-2.049-0.377c0.025-0.289,0.068-0.578,0.125-0.863c0.4-1.996,1.563-3.84,3.391-5.057
	s3.979-1.578,5.975-1.178s3.838,1.563,5.057,3.391l0,0c1.217,1.83,1.578,3.979,1.178,5.975s-1.563,3.838-3.391,5.057
	c-0.404,0.27-0.697,0.496-1.129,0.684L374.92,466.449z"/>
<path fill-rule="evenodd" clip-rule="evenodd" fill="#8FC31F" d="M350.238,463.283l2.484-0.773v6.627l-0.266,0.023v-1.891h-0.398
	v2.105v0.217l0.215-0.018l0.449-0.039v3.857h-2.484V463.283L350.238,463.283z M357.559,461.311l15.893,2.709v9.4h-15.893V461.311
	L357.559,461.311z M358.973,463.219v8.768c0,0.328,0.266,0.596,0.596,0.596s0.598-0.268,0.598-0.596v-8.768
	c0-0.33-0.268-0.598-0.598-0.598S358.973,462.889,358.973,463.219L358.973,463.219z M371.428,464.908v7.186
	c0,0.27,0.219,0.488,0.49,0.488c0.27,0,0.488-0.219,0.488-0.488v-7.186c0-0.27-0.219-0.488-0.488-0.488
	C371.646,464.42,371.428,464.639,371.428,464.908L371.428,464.908z M369.242,464.635v7.441c0,0.279,0.227,0.506,0.506,0.506
	s0.508-0.227,0.508-0.506v-7.441c0-0.279-0.229-0.506-0.508-0.506S369.242,464.355,369.242,464.635L369.242,464.635z
	 M366.82,464.355v7.703c0,0.289,0.234,0.523,0.523,0.523c0.291,0,0.525-0.234,0.525-0.523v-7.703c0-0.289-0.234-0.525-0.525-0.525
	C367.055,463.83,366.82,464.066,366.82,464.355L366.82,464.355z M364.395,464.016v8.021c0,0.301,0.244,0.545,0.547,0.545
	c0.301,0,0.545-0.244,0.545-0.545v-8.021c0-0.303-0.244-0.547-0.545-0.547C364.639,463.469,364.395,463.713,364.395,464.016
	L364.395,464.016z M361.762,463.619v8.393c0,0.314,0.256,0.57,0.572,0.57s0.572-0.256,0.572-0.57v-8.393
	c0-0.314-0.256-0.57-0.572-0.57S361.762,463.305,361.762,463.619L361.762,463.619z M353.117,462.387l3.545-1.104v12.109h-3.545
	V462.387z"/>
<path fill-rule="evenodd" clip-rule="evenodd" fill="#8FC31F" d="M368.34,458.625l2.479,2.48c-0.039,0.117-0.061,0.242-0.061,0.375
	c0,0.232,0.068,0.451,0.189,0.633l-0.195,0.465l1.217,0.51l0.205-0.488c0.037-0.008,0.072-0.018,0.109-0.031l0.76,0.762l0.539-0.539
	l-0.699-0.697c0.113-0.178,0.178-0.389,0.178-0.613c0-0.221-0.061-0.424-0.168-0.6l0.982-2.34l-1.219-0.512l-0.971,2.32
	c-0.141,0.027-0.273,0.08-0.391,0.154l-2.418-2.418L368.34,458.625z"/>
<rect x="355.568" y="455.422" fill-rule="evenodd" clip-rule="evenodd" fill="#8FC31F" width="5.5" height="3.844"/>
<polygon fill-rule="evenodd" clip-rule="evenodd" fill="#8FC31F" points="356.736,460.5 353.318,457.344 356.736,454.188 "/>
</svg>
