<?xml version="1.0" encoding="utf-8"?>
<!-- Generator: Adobe Illustrator 16.0.0, SVG Export Plug-In . SVG Version: 6.00 Build 0)  -->
<!DOCTYPE svg PUBLIC "-//W3C//DTD SVG 1.1//EN" "http://www.w3.org/Graphics/SVG/1.1/DTD/svg11.dtd">
<svg version="1.1" id="图层_1" xmlns="http://www.w3.org/2000/svg" xmlns:xlink="http://www.w3.org/1999/xlink" x="0px" y="0px"
	 width="595.28px" height="841.89px" viewBox="0 0 595.28 841.89" enable-background="new 0 0 595.28 841.89" xml:space="preserve">
<g>
	<path fill-rule="evenodd" clip-rule="evenodd" fill="#F39800" d="M281.331,464.452c0-0.148,0-0.297,0-0.446
		c-0.425-1.163-0.956-2.269-1.803-3.193c-1.184-1.292-2.206-1.832-4.513-2.386c0.427-0.741,0.859-1.466,1.266-2.206
		c0.588-1.071,0.067-2.13-1.129-2.283c-0.744-0.097-1.248,0.297-1.604,0.904c-0.571,0.975-1.128,1.956-1.693,2.935
		c-0.086,0.149-0.182,0.293-0.351,0.427c0-1.033,0.002-2.064-0.001-3.097c-0.001-0.237,0.014-0.482-0.041-0.709
		c-0.187-0.775-0.824-1.142-1.727-1.023c-0.67,0.089-1.172,0.68-1.175,1.41c-0.006,1.815,0,3.632-0.004,5.447
		c0,0.168-0.028,0.336-0.043,0.503c-0.043,0.002-0.085,0.005-0.128,0.007c-0.061-0.365-0.125-0.731-0.183-1.097
		c-0.09-0.572-0.14-1.154-0.276-1.715c-0.081-0.333-0.249-0.672-0.459-0.945c-0.374-0.487-0.917-0.588-1.489-0.431
		c-0.549,0.15-0.795,0.607-0.801,1.116c-0.008,0.678,0.055,1.364,0.165,2.033c0.409,2.506,0.804,5.015,1.292,7.506
		c0.491,2.504,2.417,5.503,6.286,6.03c3.468,0.474,6.969-1.561,8.103-4.827c0.115-0.333,0.206-0.675,0.307-1.012
		c0-0.268,0-0.536,0-0.804c-0.244-0.26-0.463-0.551-0.741-0.768c-0.206-0.161-0.182-0.234-0.033-0.405
		C280.829,465.113,281.074,464.778,281.331,464.452z M274.12,470.743c-2.659,0.066-4.783-1.738-5.01-4.568c3.235,0,6.468,0,9.702,0
		C278.759,468.577,276.898,470.674,274.12,470.743z M269.131,465.294c0.003-1.137,0.603-2.148,2.142-3.613
		c-0.169-0.326-0.37-0.655-0.509-1.008c-0.054-0.137,0.031-0.327,0.053-0.493c0.155,0.068,0.368,0.094,0.454,0.213
		c0.226,0.309,0.396,0.659,0.61,1.031c1.42-0.769,2.84-0.695,4.278,0.032c0.225-0.373,0.418-0.738,0.658-1.072
		c0.073-0.102,0.269-0.115,0.408-0.169c0.014,0.14,0.083,0.307,0.03,0.413c-0.175,0.357-0.393,0.693-0.612,1.067
		c1.232,0.886,2.018,2.032,2.221,3.599C275.571,465.294,272.352,465.294,269.131,465.294z"/>
	<path fill-rule="evenodd" clip-rule="evenodd" fill="#F39800" d="M271.713,463.884c-0.301,0-0.57-0.273-0.563-0.574
		c0.005-0.299,0.287-0.572,0.584-0.548c0.331,0.025,0.509,0.233,0.539,0.55C272.301,463.613,272.02,463.884,271.713,463.884z"/>
	<path fill-rule="evenodd" clip-rule="evenodd" fill="#F39800" d="M276.358,463.884c-0.301,0-0.569-0.273-0.563-0.574
		c0.005-0.299,0.287-0.572,0.584-0.548c0.331,0.025,0.51,0.233,0.539,0.55C276.946,463.613,276.665,463.884,276.358,463.884z"/>
</g>
</svg>
