<?xml version="1.0" encoding="utf-8"?>
<!-- Generator: Adobe Illustrator 16.0.0, SVG Export Plug-In . SVG Version: 6.00 Build 0)  -->
<!DOCTYPE svg PUBLIC "-//W3C//DTD SVG 1.1//EN" "http://www.w3.org/Graphics/SVG/1.1/DTD/svg11.dtd">
<svg version="1.1" id="图层_1" xmlns="http://www.w3.org/2000/svg" xmlns:xlink="http://www.w3.org/1999/xlink" x="0px" y="0px"
	 width="20.808px" height="20.132px" viewBox="71.001 338.903 20.808 20.132" enable-background="new 71.001 338.903 20.808 20.132"
	 xml:space="preserve">
<path fill="#E83828" d="M80.069,354.682l5.624-1.598l-0.363,1.439c3.269,0.094,6.121-1.714,6.479-5.751
	c-0.108,5.015-2.691,8.891-7.278,8.922l-0.338,1.341L80.069,354.682L80.069,354.682z"/>
<path fill="#E83828" d="M90.438,346.758l-0.007-0.034l-0.014-0.063c-0.311-1.448-0.94-2.778-1.813-3.912
	c-0.869-1.135-1.99-2.087-3.309-2.762l-0.054-0.027l-0.038-0.02c-0.945-0.473-1.978-0.798-3.066-0.946l-0.043-0.006l-0.046-0.005
	c-1.091-0.14-2.174-0.092-3.21,0.121l-0.018,0.004l0.025,0.017l-0.023,0.005l-0.062,0.013c-1.449,0.31-2.779,0.94-3.913,1.812
	c-1.135,0.87-2.087,1.991-2.761,3.309l-0.028,0.054l-0.019,0.039c-0.473,0.945-0.799,1.977-0.946,3.065l-0.006,0.044l-0.007,0.048
	c-0.134,1.052-0.095,2.096,0.099,3.099l0.014,0.14c0.398,1.902,1.346,3.602,2.67,4.926c1.482,1.482,3.438,2.494,5.619,2.788
	l0.045,0.006l0.049,0.006c0.69,0.088,1.379,0.102,2.053,0.045l-3.748-4.037l-0.384-0.463l4.071-1.156v-3.258h3.775
	c-0.051,0.752-0.146,1.507-0.284,2.266l1.441-0.41c0.095-0.62,0.162-1.239,0.201-1.856h1.937l-0.007,0.061h0.001
	c-0.045,0.365-0.115,0.732-0.213,1.098c-0.094,0.346-0.207,0.68-0.342,1.001c-0.328,0.117-0.656,0.228-0.984,0.332l-0.256,1.012
	c1.355-0.295,2.396-1.045,3.039-2.189c0.344-0.636,0.562-1.395,0.639-2.267l0.078-0.872
	C90.559,347.439,90.507,347.096,90.438,346.758z M75.259,343.18c0.243-0.243,0.501-0.469,0.773-0.679
	c0.115-0.087,0.232-0.172,0.351-0.253c-0.174,0.492-0.326,0.985-0.455,1.479c-0.511,0.134-1.021,0.291-1.529,0.473
	C74.657,343.836,74.945,343.495,75.259,343.18z M72.959,348.101l0.023-0.035c0.008-0.102,0.02-0.204,0.032-0.306l0.009-0.067
	c0.044-0.327,0.11-0.655,0.198-0.982c0.06-0.223,0.128-0.44,0.206-0.653c0.722-0.332,1.449-0.607,2.178-0.831
	c-0.171,1.002-0.256,2.009-0.261,3.022h-2.395C72.952,348.199,72.956,348.15,72.959,348.101z M73.496,351.657
	c-0.258-0.645-0.433-1.331-0.513-2.047h2.401c0.061,0.961,0.191,1.926,0.383,2.895C75.006,352.28,74.249,351.999,73.496,351.657z
	 M75.242,354.3c-0.238-0.237-0.459-0.489-0.665-0.754c0.511,0.177,1.024,0.329,1.538,0.457c0.116,0.439,0.244,0.879,0.384,1.32
	C76.045,355.025,75.624,354.682,75.242,354.3z M80.208,353.183c-0.999-0.02-1.992-0.124-2.98-0.32
	c-0.248-1.091-0.414-2.176-0.487-3.253h3.467V353.183z M80.208,348.25h-3.509c0.007-1.139,0.122-2.271,0.357-3.395
	c1.043-0.218,2.094-0.334,3.152-0.354V348.25z M80.208,343.145c-0.931,0.017-1.857,0.101-2.779,0.259
	c0.213-0.699,0.475-1.394,0.789-2.086c0.282-0.1,0.57-0.184,0.864-0.25l0.027-0.006l0.049-0.011c0.342-0.074,0.694-0.126,1.05-0.154
	V343.145z M81.568,340.907c0.067,0.007,0.135,0.014,0.201,0.022c0.366,0.044,0.732,0.115,1.099,0.213
	c0.378,0.1,0.741,0.227,1.09,0.378c0.297,0.679,0.546,1.361,0.747,2.046c-1.049-0.209-2.096-0.344-3.137-0.397V340.907z
	 M81.568,348.249v-3.724c1.157,0.063,2.322,0.235,3.496,0.502c0.211,1.068,0.316,2.142,0.322,3.222H81.568z M86.204,343.913
	c-0.103-0.414-0.222-0.827-0.356-1.239c0.185,0.154,0.363,0.316,0.533,0.487c0.242,0.243,0.469,0.5,0.679,0.773
	c0.071,0.093,0.139,0.188,0.207,0.283C86.913,344.108,86.558,344.007,86.204,343.913z M86.742,348.25
	c-0.006-0.953-0.081-1.902-0.232-2.846c0.555,0.162,1.113,0.345,1.672,0.546c0.127,0.335,0.23,0.68,0.311,1.032l0.006,0.028
	l0.012,0.05c0.083,0.387,0.137,0.784,0.162,1.19H86.742z"/>
</svg>
