<?xml version="1.0" encoding="utf-8"?>
<!-- Generator: Adobe Illustrator 16.0.0, SVG Export Plug-In . SVG Version: 6.00 Build 0)  -->
<!DOCTYPE svg PUBLIC "-//W3C//DTD SVG 1.1//EN" "http://www.w3.org/Graphics/SVG/1.1/DTD/svg11.dtd">
<svg version="1.1" id="图层_1" xmlns="http://www.w3.org/2000/svg" xmlns:xlink="http://www.w3.org/1999/xlink" x="0px" y="0px"
	 width="29.385px" height="19.82px" viewBox="304.904 453.419 29.385 19.82" enable-background="new 304.904 453.419 29.385 19.82"
	 xml:space="preserve">
<path fill="#E61673" d="M329.587,466.267c1.354-0.898,2.209-2.26,2.504-3.732c0.297-1.477,0.029-3.064-0.869-4.414
	c-0.898-1.354-2.262-2.209-3.734-2.506c-1.477-0.295-3.064-0.029-4.414,0.871c-1.352,0.896-2.209,2.26-2.504,3.734
	c-0.029,0.143-0.096,0.689-0.113,0.832l-2.049-0.377c0.023-0.291,0.064-0.578,0.125-0.863c0.398-1.998,1.561-3.84,3.391-5.057
	c1.828-1.219,3.977-1.58,5.973-1.18s3.84,1.563,5.057,3.393l0,0c1.219,1.828,1.58,3.979,1.18,5.975
	c-0.398,1.994-1.563,3.838-3.393,5.057c-0.404,0.27-0.695,0.496-1.127,0.684L329.587,466.267z"/>
<path fill="#E61673" d="M304.904,463.103l2.486-0.773v6.627l-0.268,0.021v-1.889h-0.398v2.105v0.217l0.217-0.02l0.449-0.039v3.857
	h-2.486V463.103L304.904,463.103z M312.224,461.128l15.895,2.711v9.4h-15.895V461.128L312.224,461.128z M313.638,463.039v8.766
	c0,0.33,0.27,0.598,0.598,0.598c0.33,0,0.598-0.268,0.598-0.598v-8.766c0-0.33-0.268-0.598-0.598-0.598
	S313.638,462.708,313.638,463.039L313.638,463.039z M326.093,464.728v7.186c0,0.27,0.221,0.488,0.49,0.488s0.488-0.219,0.488-0.488
	v-7.186c0-0.27-0.219-0.488-0.488-0.488C326.314,464.238,326.093,464.458,326.093,464.728L326.093,464.728z M323.908,464.455v7.439
	c0,0.279,0.227,0.508,0.508,0.508c0.279,0,0.506-0.229,0.506-0.508v-7.439c0-0.279-0.227-0.506-0.506-0.506
	C324.134,463.949,323.908,464.175,323.908,464.455L323.908,464.455z M321.486,464.175v7.701c0,0.291,0.234,0.525,0.525,0.525
	c0.289,0,0.523-0.234,0.523-0.525v-7.701c0-0.291-0.234-0.525-0.523-0.525C321.72,463.65,321.486,463.884,321.486,464.175
	L321.486,464.175z M319.06,463.833v8.021c0,0.303,0.244,0.547,0.549,0.547c0.301,0,0.547-0.244,0.547-0.547v-8.021
	c0-0.301-0.246-0.545-0.547-0.545C319.304,463.289,319.06,463.533,319.06,463.833L319.06,463.833z M316.429,463.437v8.393
	c0,0.314,0.256,0.572,0.57,0.572c0.316,0,0.572-0.258,0.572-0.572v-8.393c0-0.314-0.256-0.57-0.572-0.57
	C316.685,462.867,316.429,463.123,316.429,463.437L316.429,463.437z M307.785,462.207l3.543-1.105v12.109h-3.543V462.207z"/>
<path fill="#E61673" d="M323.005,458.996l2.48,2.48c-0.041,0.117-0.063,0.242-0.063,0.375c0,0.232,0.07,0.451,0.189,0.633
	l-0.195,0.465l1.219,0.51l0.203-0.486c0.037-0.01,0.074-0.02,0.109-0.031l0.762,0.762l0.539-0.539l-0.699-0.697
	c0.111-0.178,0.176-0.389,0.176-0.613c0-0.221-0.061-0.424-0.166-0.6l0.98-2.34l-1.217-0.512l-0.975,2.318
	c-0.141,0.029-0.27,0.082-0.389,0.156l-2.418-2.418L323.005,458.996z"/>
<rect x="307.986" y="455.388" fill="#E61673" width="5.5" height="3.846"/>
<polygon fill="#E61673" points="312.318,454.154 315.736,457.31 312.318,460.466 "/>
</svg>
