<?xml version="1.0" encoding="utf-8"?>
<!-- Generator: Adobe Illustrator 16.0.0, SVG Export Plug-In . SVG Version: 6.00 Build 0)  -->
<!DOCTYPE svg PUBLIC "-//W3C//DTD SVG 1.1//EN" "http://www.w3.org/Graphics/SVG/1.1/DTD/svg11.dtd">
<svg version="1.1" id="图层_1" xmlns="http://www.w3.org/2000/svg" xmlns:xlink="http://www.w3.org/1999/xlink" x="0px" y="0px"
	 width="18.742px" height="22.636px" viewBox="306.365 408.608 18.742 22.636"
	 enable-background="new 306.365 408.608 18.742 22.636" xml:space="preserve">
<path fill="#601986" d="M318.638,408.608h-5.58v2.389l1.131,3.939h0.947c0.084,0.53,0.34,0.84,0.824,1.299
	c0.049,0.046,0.1,0.094,0.148,0.141c0.586,0.57,0.561,1.252,0.137,1.59l-0.334-0.127l-0.129-0.05l-0.129,0.051l-0.602,0.233
	c-0.5-0.217-0.727-0.763-0.566-1.506c-0.676,0.023-0.938,1.11-0.547,1.939l-5.893,2.295c-0.111-0.041-0.232-0.064-0.359-0.064
	c-0.285,0-0.545,0.117-0.732,0.305s-0.305,0.447-0.305,0.733v0.162h-0.285v9.307h18.742v-9.307h-0.154v-0.162
	c0-0.286-0.117-0.545-0.305-0.733c-0.189-0.188-0.449-0.305-0.734-0.305c-0.104,0-0.205,0.016-0.299,0.045l-5.822-2.225
	c0.514-0.855,0.355-2.156-0.51-3.031c-0.211-0.213-0.449-0.4-0.662-0.59h0.891l1.127-3.939V408.608L318.638,408.608z
	 M320.611,423.144c0.277,0,0.506,0.23,0.506,0.508c0,2.008,0,4.016,0,6.021c0,0.279-0.229,0.506-0.506,0.506l0,0
	c-0.279,0-0.506-0.227-0.506-0.506c0-2.008,0-4.016,0-6.021C320.105,423.373,320.332,423.144,320.611,423.144L320.611,423.144
	L320.611,423.144z M323.009,423.144c0.277,0,0.506,0.23,0.506,0.508v6.021c0,0.279-0.229,0.506-0.506,0.506l0,0
	c-0.277,0-0.506-0.227-0.506-0.506v-6.021C322.503,423.373,322.732,423.144,323.009,423.144L323.009,423.144L323.009,423.144z
	 M318.212,423.144c0.277,0,0.504,0.23,0.504,0.508c0,2.008,0,4.016,0,6.021c0,0.279-0.227,0.506-0.504,0.506l0,0
	c-0.279,0-0.506-0.227-0.506-0.506c0-2.008,0-4.016,0-6.021C317.707,423.373,317.933,423.144,318.212,423.144L318.212,423.144
	L318.212,423.144z M315.814,423.144c0.277,0,0.506,0.23,0.506,0.508c0,2.008,0,4.016,0,6.021c0,0.279-0.229,0.506-0.506,0.506l0,0
	c-0.277,0-0.508-0.227-0.508-0.506c0-2.008,0-4.016,0-6.021C315.306,423.373,315.535,423.144,315.814,423.144L315.814,423.144
	L315.814,423.144z M313.414,423.144c0.279,0,0.506,0.23,0.506,0.508c0,2.008,0,4.016,0,6.021c0,0.279-0.227,0.506-0.506,0.506l0,0
	c-0.277,0-0.506-0.227-0.506-0.506c0-2.008,0-4.016,0-6.021C312.908,423.373,313.136,423.144,313.414,423.144L313.414,423.144
	L313.414,423.144z M311.015,423.144c0.277,0,0.508,0.23,0.508,0.508c0,2.008,0,4.016,0,6.021c0,0.279-0.23,0.506-0.508,0.506l0,0
	c-0.277,0-0.506-0.227-0.506-0.506c0-2.008,0-4.016,0-6.021C310.509,423.373,310.736,423.144,311.015,423.144L311.015,423.144
	L311.015,423.144z M308.617,423.144c0.277,0,0.506,0.23,0.506,0.508v6.021c0,0.279-0.229,0.506-0.506,0.506l0,0
	c-0.279,0-0.506-0.227-0.506-0.506v-6.021C308.111,423.373,308.337,423.144,308.617,423.144L308.617,423.144L308.617,423.144z
	 M307.595,421.324l0.145,0.371l0.354-0.139c0.035,0.064,0.057,0.139,0.057,0.218v0.163h-0.92v-0.163
	c0-0.126,0.053-0.241,0.135-0.323C307.425,421.388,307.505,421.343,307.595,421.324L307.595,421.324z M308.632,421.346l5.779-2.25
	c0.404,0.31,0.943,0.424,1.465,0.42c0.496-0.004,0.988-0.132,1.377-0.393l5.73,2.19c-0.068,0.14-0.107,0.296-0.107,0.461v0.163
	h-14.15v-0.163C308.726,421.621,308.693,421.477,308.632,421.346L308.632,421.346z M323.531,421.521l0.455,0.174l0.127-0.334
	c0.047,0.022,0.09,0.053,0.125,0.09c0.084,0.082,0.137,0.197,0.137,0.323v0.163h-0.92v-0.163
	C323.455,421.682,323.482,421.595,323.531,421.521z"/>
</svg>
